G04 ================== begin FILE IDENTIFICATION RECORD ==================*
G04 Layout Name:  CHOPPING_WAVE_OSC.brd*
G04 Film Name:    BOTTOM*
G04 File Format:  Gerber RS274X*
G04 File Origin:  Cadence Allegro 17.2-P019*
G04 Origin Date:  Wed Jul 31 12:15:29 2019*
G04 *
G04 Layer:  ETCH/BOTTOM*
G04 Layer:  PIN/BOTTOM*
G04 Layer:  VIA CLASS/BOTTOM*
G04 *
G04 Offset:    (0.000 0.000)*
G04 Mirror:    No*
G04 Mode:      Positive*
G04 Rotation:  0*
G04 FullContactRelief:  No*
G04 UndefLineWidth:     0.000*
G04 ================== end FILE IDENTIFICATION RECORD ====================*
%FSLAX25Y25*MOMM*%
%IR0*IPPOS*OFA0.00000B0.00000*MIA0B0*SFA1.00000B1.00000*%
%ADD11C,1.524*%
%ADD12C,1.651*%
%ADD13R,1.524X1.524*%
%ADD10C,.635*%
%ADD14C,1.*%
%ADD15C,.5*%
%ADD16C,2.544*%
%ADD17C,2.672*%
G75*
%LPD*%
G75*
G36*
G01X754200Y500000D02*
Y754200D01*
X500000D01*
Y2864800D01*
G03X548500Y3109600I0J127204D01*
G02Y3128400I3930J9400D01*
G03Y3363600I-48500J117600D01*
G02Y3382400I3930J9400D01*
G03X500000Y3627200I-48500J117596D01*
G01Y6245800D01*
X754200D01*
Y6500000D01*
X9245800D01*
Y6245800D01*
X9500000D01*
Y3881200D01*
G03X9451500Y3636400I0J-127204D01*
G02Y3617600I-3930J-9400D01*
G03X9500000Y3372800I48500J-117596D01*
G01Y754200D01*
X9245800D01*
Y500000D01*
X754200D01*
G37*
%LPC*%
G75*
G36*
G01X2896400Y4933500D02*
G03X2877600I-9400J-3930D01*
G02Y5030500I-117600J48500D01*
G03X2896400I9400J3930D01*
G02X3131600I117600J-48500D01*
G03X3150400I9400J3930D01*
G02X3385600I117600J-48500D01*
G03X3404400I9400J3930D01*
G02Y4933500I117600J-48500D01*
G03X3385600I-9400J-3930D01*
G02X3150400I-117600J48500D01*
G03X3131600I-9400J-3930D01*
G02X2896400I-117600J48500D01*
G37*
G36*
G01X1264000Y5352500D02*
Y5510100D01*
G02X1416000I76000J109900D01*
G01Y5415500D01*
X1421500Y5410000D01*
X1950000D01*
X2044500Y5315500D01*
Y4775600D01*
X2035600Y4766700D01*
G03X2035700Y4752100I7174J-7251D01*
G02X1872000Y4762000I-87719J-92104D01*
G01Y4818100D01*
X1892500Y4838600D01*
Y5252500D01*
X1887000Y5258000D01*
X1358500D01*
X1264000Y5352500D01*
G37*
G36*
G01X5310700Y5639000D02*
X5185300D01*
X5170000Y5623600D01*
G03X5174000Y5606800I7218J-7158D01*
G02X5210000Y5384000I-39986J-120769D01*
G01Y5316100D01*
X5268000Y5258100D01*
Y5202000D01*
G02X5309600Y5148500I-75990J-102011D01*
G03X5328400I9400J3930D01*
G02X5553900Y5167300I117578J-48510D01*
G03X5572800Y5172700I8693J5351D01*
G01Y5176200D01*
G02X5623800Y5227200I51000J0D01*
G01X5776200D01*
G02X5827200Y5176200I0J-51000D01*
G01Y5023800D01*
G02X5776200Y4972800I-51000J0D01*
G01X5623800D01*
G02X5572800Y5023800I0J51000D01*
G01Y5027300D01*
G03X5553900Y5032700I-10207J49D01*
G02X5328400Y5051500I-107922J67310D01*
G03X5309600I-9400J-3930D01*
G02X5074400I-117600J48500D01*
G03X5055600I-9400J-3930D01*
G02X4846500Y5011600I-117609J48487D01*
G03X4829000Y5004500I-7312J-7094D01*
G01Y4648300D01*
X4867800Y4609500D01*
X5317300D01*
X5462700Y4464100D01*
X5464400Y4463900D01*
G02X5563600Y4386500I-18418J-125875D01*
G03X5582400I9400J3930D01*
G02Y4289500I117600J-48500D01*
G03X5563600I-9400J-3930D01*
G02X5328400I-117600J48500D01*
G03X5309600I-9400J-3930D01*
G02X5074400I-117600J48500D01*
G03X5055600I-9400J-3930D01*
G02X4823300Y4392900I-117579J48490D01*
G03X4814100Y4407500I-9217J4390D01*
G01X4784200D01*
X4627000Y4564700D01*
Y5629800D01*
X4753900Y5756700D01*
X4754100Y5758400D01*
G02X5004500Y5766100I125883J-18359D01*
G03X5021700Y5761000I9982J2112D01*
G01X5101700Y5841000D01*
X5310700D01*
G02Y5639000I77300J-101000D01*
G37*
G36*
G01X2887200Y4143800D02*
G02X2836200Y4092800I-51000J0D01*
G01X2683800D01*
G02X2632800Y4143800I0J51000D01*
G01Y4296200D01*
G02X2683800Y4347200I51000J0D01*
G01X2836200D01*
G02X2887200Y4296200I0J-51000D01*
G01Y4292700D01*
G03X2906100Y4287300I10207J-49D01*
G02X3131600Y4268500I107922J-67310D01*
G03X3150400I9400J3930D01*
G02X3385600I117600J-48500D01*
G03X3404400I9400J3930D01*
G02Y4171500I117600J-48500D01*
G03X3385600I-9400J-3930D01*
G02X3150400I-117600J48500D01*
G03X3131600I-9400J-3930D01*
G02X2906100Y4152700I-117578J48510D01*
G03X2887200Y4147300I-8693J-5351D01*
G01Y4143800D01*
G37*
G36*
G01X1328000Y3317900D02*
Y3750100D01*
G02X1480000I76000J109900D01*
G01Y3380900D01*
X1533300Y3327600D01*
G03X1547900Y3327700I7251J7174D01*
G02X1538000Y3164000I92104J-87719D01*
G01X1481900D01*
X1328000Y3317900D01*
G37*
G36*
G01X2336400Y2951500D02*
G03X2317600I-9400J-3930D01*
G02Y3048500I-117600J48500D01*
G03X2336400I9400J3930D01*
G02Y2951500I117600J-48500D01*
G37*
G36*
G01X3896000Y2898000D02*
Y2369900D01*
G02X3744000I-76000J-109900D01*
G01Y2898000D01*
G02X3937600Y3048500I76007J101998D01*
G03X3956400I9400J3930D01*
G02Y2951500I117600J-48500D01*
G03X3937600I-9400J-3930D01*
G02X3896000Y2898000I-117590J48511D01*
G37*
G36*
G01X3097600Y2951500D02*
G02X3056000Y2898000I-117590J48511D01*
G01Y2369900D01*
G02X2904000I-76000J-109900D01*
G01Y2898000D01*
G02X3097600Y3048500I76007J101998D01*
G03X3116400I9400J3930D01*
G02Y2951500I117600J-48500D01*
G03X3097600I-9400J-3930D01*
G37*
G36*
G01X4656000Y2878000D02*
Y2349900D01*
G02X4504000I-76000J-109900D01*
G01Y2878000D01*
G02X4697600Y3028500I76007J101998D01*
G03X4716400I9400J3930D01*
G02Y2931500I117600J-48500D01*
G03X4697600I-9400J-3930D01*
G02X4656000Y2878000I-117590J48511D01*
G37*
G36*
G01X7596000Y2409900D02*
G02X7430800Y2399500I-76009J-109890D01*
G03X7432000Y2413400I-6788J7588D01*
G01Y2818000D01*
G02X7390400Y2871500I75990J102011D01*
G03X7371600I-9400J-3930D01*
G02X7146100Y2852700I-117578J48510D01*
G03X7127200Y2847300I-8693J-5351D01*
G01Y2843800D01*
G02X7076200Y2792800I-51000J0D01*
G01X6923800D01*
G02X6872800Y2843800I0J51000D01*
G01Y2996200D01*
Y3003200D01*
X6823500D01*
X6693500Y3133200D01*
Y4148400D01*
G03X6676100Y4155600I-10192J-6D01*
G01X6648500Y4128000D01*
X6409900D01*
G02Y4280000I-109900J76000D01*
G01X6585500D01*
X6591500Y4286000D01*
Y5331900D01*
X6686100Y5426500D01*
X7467400D01*
X7562000Y5331900D01*
Y5222000D01*
G02X7593900Y5187300I-76064J-101939D01*
G03X7612800Y5192700I8693J5351D01*
G01Y5196200D01*
G02X7663800Y5247200I51000J0D01*
G01X7816200D01*
G02X7867200Y5196200I0J-51000D01*
G01Y5043800D01*
G02X7816200Y4992800I-51000J0D01*
G01X7663800D01*
G02X7612800Y5043800I0J51000D01*
G01Y5047300D01*
G03X7593900Y5052700I-10207J49D01*
G02X7368400Y5071500I-107922J67310D01*
G03X7349600I-9400J-3930D01*
G02X7114400I-117600J48500D01*
G03X7095600I-9400J-3930D01*
G02X6925100Y5004300I-117605J48491D01*
G01X6895500Y4974700D01*
Y4474800D01*
G03X6911100Y4466200I10193J41D01*
G02X7095600Y4406500I66900J-108194D01*
G03X7114400I9400J3930D01*
G02X7349600I117600J-48500D01*
G03X7368400I9400J3930D01*
G02X7603600I117600J-48500D01*
G03X7622400I9400J3930D01*
G02Y4309500I117600J-48500D01*
G03X7603600I-9400J-3930D01*
G02X7587000Y4280700I-117558J48575D01*
G01Y3872200D01*
X7536700Y3821800D01*
G03X7541200Y3804800I7207J-7188D01*
G02X7625600Y3730500I-33198J-122797D01*
G03X7644400I9400J3930D01*
G02X7883600Y3644600I117643J-48400D01*
G03X7893300Y3631400I9735J-3010D01*
G01X8413500D01*
X8433000Y3650900D01*
Y3714500D01*
X8570500Y3852000D01*
X8630100D01*
G02X8638300Y3689300I109888J-76018D01*
G03X8623400Y3689900I-7729J-6624D01*
G01X8585000Y3651500D01*
Y3587900D01*
X8476500Y3479400D01*
X7511500D01*
X7417000Y3573900D01*
Y3593100D01*
X7415600Y3594600D01*
G02X7390400Y3633500I92368J87450D01*
G03X7371600I-9400J-3930D01*
G02X7136400I-117600J48500D01*
G03X7117600I-9400J-3930D01*
G02X6912700Y3589500I-117590J48502D01*
G03X6895500Y3582100I-7000J-7419D01*
G01Y3216800D01*
X6907100Y3205200D01*
X7781500D01*
X7863000Y3123700D01*
Y2997300D01*
G02X7644400Y2871500I-101006J-77312D01*
G03X7625600I-9400J-3930D01*
G02X7584000Y2818000I-117590J48511D01*
G01Y2476500D01*
X7596000Y2464500D01*
Y2409900D01*
G37*
G54D16*
X1640000Y2732000D03*
X1386000Y2986000D03*
X1694000Y4406000D03*
X1440000Y4660000D03*
G54D17*
X2420000Y3860000D03*
X2356000Y5620000D03*
X2980000Y1244000D03*
X3820000D03*
X4220000Y4124000D03*
Y5140000D03*
X4580000Y1224000D03*
X5420000Y2820000D03*
Y3836000D03*
X6460000Y2804000D03*
X5940000Y2820000D03*
X6460000Y3820000D03*
X5940000Y3836000D03*
X6300000Y5220000D03*
X7520000Y1284000D03*
X8740000Y2760000D03*
Y4204000D03*
Y5220000D03*
%LPD*%
G75*
G36*
G01X6743500Y5133000D02*
Y5268900D01*
X6749100Y5274500D01*
X7404400D01*
X7410000Y5268900D01*
Y5222000D01*
G03X7368400Y5168500I75990J-102011D01*
G02X7349600I-9400J3930D01*
G03X7114400I-117600J-48500D01*
G02X7095600I-9400J3930D01*
G03X6902000Y5222000I-117595J-48499D01*
G01X6900700Y5221000D01*
X6856200D01*
X6760900Y5125700D01*
G02X6743500Y5133000I-7195J7238D01*
G37*
G54D10*
X500000Y500000D03*
Y6500000D03*
X9500000Y500000D03*
Y6500000D03*
G54D11*
X500000Y3246000D03*
Y2992000D03*
Y3500000D03*
X1640000Y2732000D03*
X1386000Y2986000D03*
X1640000Y3240000D03*
X1948000Y4660000D03*
X1694000Y4406000D03*
X1440000Y4660000D03*
X2454000Y3000000D03*
X2200000D03*
X3234000D03*
X2980000D03*
X3268000Y4220000D03*
X3014000D03*
X3268000Y4982000D03*
X3014000D03*
X2760000D03*
X4074000Y3000000D03*
X3820000D03*
X3522000Y4220000D03*
Y4982000D03*
X4834000Y2980000D03*
X4580000D03*
X4938000Y4338000D03*
X4880000Y5740000D03*
X4938000Y5100000D03*
X5192000Y4338000D03*
X5446000D03*
X5700000D03*
X5388000Y5740000D03*
X5134000Y5486000D03*
X5192000Y5100000D03*
X5446000D03*
X7254000Y2920000D03*
Y3682000D03*
X7000000D03*
X6978000Y4358000D03*
X7232000D03*
X6978000Y5120000D03*
X7232000D03*
X7762000Y2920000D03*
X7508000D03*
X7762000Y3682000D03*
X7508000D03*
X7486000Y4358000D03*
X7740000D03*
X7486000Y5120000D03*
X9500000Y3500000D03*
Y3754000D03*
G54D12*
X1404000Y3860000D03*
X1340000Y5620000D03*
X2420000Y3860000D03*
X2356000Y5620000D03*
X2980000Y1244000D03*
Y2260000D03*
X3820000Y1244000D03*
Y2260000D03*
X4220000Y4124000D03*
Y5140000D03*
X4580000Y1224000D03*
Y2240000D03*
X5420000Y2820000D03*
Y3836000D03*
X6460000Y2804000D03*
X5940000Y2820000D03*
X6300000Y4204000D03*
X6460000Y3820000D03*
X5940000Y3836000D03*
X6300000Y5220000D03*
X7520000Y1284000D03*
Y2300000D03*
X8740000Y2760000D03*
Y4204000D03*
Y3776000D03*
Y5220000D03*
G54D13*
X2760000Y4220000D03*
X5700000Y5100000D03*
X7000000Y2920000D03*
X7740000Y5120000D03*
G54D14*
G01X825500Y3238500D02*
X818000Y3246000D01*
G01D02*
X500000D01*
G01X4880000Y5740000D02*
X4728000Y5588000D01*
Y4606500D01*
X4826000Y4508500D01*
X5275500D01*
X5446000Y4338000D01*
G01X4938000Y5100000D02*
Y5534500D01*
X5143500Y5740000D01*
X5388000D01*
G01X7762000Y2920000D02*
Y3081900D01*
X7739700Y3104200D01*
X6865300D01*
X6794500Y3175000D01*
Y5016500D01*
X6898000Y5120000D01*
X6978000D01*
G01X7486000Y4358000D02*
Y3914000D01*
X7254000Y3682000D01*
G54D15*
G01X1640000Y3240000D02*
X1513400D01*
X1404000Y3349400D01*
Y3860000D01*
G01X1340000Y5620000D02*
Y5384000D01*
X1390000Y5334000D01*
X1918500D01*
X1968500Y5284000D01*
Y4807100D01*
X1948000Y4786600D01*
Y4660000D01*
G01X2980000Y1105300D02*
Y1244000D01*
G01D02*
X3118700D01*
G01X2841300D02*
X2980000D01*
G01D02*
Y1382700D01*
G01Y3000000D02*
Y2260000D01*
G01X3820000Y1105300D02*
Y1244000D01*
G01D02*
X3958700D01*
G01X3681300D02*
X3820000D01*
G01D02*
Y1382700D01*
G01Y3000000D02*
Y2260000D01*
G01X4081300Y5140000D02*
X4220000D01*
G01X4580000Y1085300D02*
Y1224000D01*
G01D02*
X4718700D01*
G01X4441300D02*
X4580000D01*
G01D02*
Y1362700D01*
G01Y2980000D02*
Y2240000D01*
G01X4220000Y5140000D02*
X4358700D01*
G01X4220000D02*
Y5278700D01*
G01Y5001300D02*
Y5140000D01*
G01X5134000Y5486000D02*
Y5284600D01*
X5192000Y5226600D01*
Y5100000D01*
G01X5940000Y3836000D02*
X6078700D01*
G01X5801300D02*
X5940000D01*
G01D02*
Y3974700D01*
G01Y3697300D02*
Y3836000D01*
G01X7486000Y5120000D02*
Y5300400D01*
X7435900Y5350500D01*
X6717600D01*
X6667500Y5300400D01*
Y4254500D01*
X6617000Y4204000D01*
X6300000D01*
G01X7520000Y1284000D02*
X7658700D01*
G01X7381300D02*
X7520000D01*
G01D02*
Y1422700D01*
G01Y1145300D02*
Y1284000D01*
G01X7508000Y2920000D02*
Y2445000D01*
X7520000Y2433000D01*
Y2300000D01*
G01X7508000Y3682000D02*
X7493000Y3667000D01*
Y3605400D01*
X7543000Y3555400D01*
X8445000D01*
X8509000Y3619400D01*
Y3683000D01*
X8602000Y3776000D01*
X8740000D01*
G01X7232000Y5120000D02*
Y5252300D01*
G01Y4987700D02*
Y5120000D01*
G01X9367700Y3754000D02*
X9500000D01*
G01D02*
Y3886300D01*
M02*
