G04 ================== begin FILE IDENTIFICATION RECORD ==================*
G04 Layout Name:  CHOPPING_WAVE_OSC.brd*
G04 Film Name:    SilkT*
G04 File Format:  Gerber RS274X*
G04 File Origin:  Cadence Allegro 17.2-P019*
G04 Origin Date:  Wed Jul 31 12:15:29 2019*
G04 *
G04 Layer:  REF DES/SILKSCREEN_TOP*
G04 Layer:  PACKAGE GEOMETRY/SILKSCREEN_TOP*
G04 Layer:  BOARD GEOMETRY/SILKSCREEN_TOP*
G04 *
G04 Offset:    (0.000 0.000)*
G04 Mirror:    No*
G04 Mode:      Positive*
G04 Rotation:  0*
G04 FullContactRelief:  No*
G04 UndefLineWidth:     0.200*
G04 ================== end FILE IDENTIFICATION RECORD ====================*
%FSLAX25Y25*MOMM*%
%IR0*IPPOS*OFA0.00000B0.00000*MIA0B0*SFA1.00000B1.00000*%
%ADD10C,.5*%
%ADD11C,.2*%
G75*
%LPD*%
G75*
G54D10*
G01X4125000Y500000D02*
X4025000D01*
Y900000D01*
X4125000D01*
G01X4085000Y706700D02*
X4025000D01*
G01X4190200Y900000D02*
Y500000D01*
X4290200D01*
G01X4455400D02*
X4355400D01*
Y900000D01*
X4455400D01*
G01X4415400Y706700D02*
X4355400D01*
G01X4625600Y866700D02*
X4610600Y886700D01*
X4593100Y900000D01*
X4573100D01*
X4550600Y880000D01*
X4533100Y846700D01*
X4520600Y806700D01*
X4510600Y740000D01*
X4508100Y680000D01*
X4513100Y620000D01*
X4520600Y580000D01*
X4535600Y540000D01*
X4553100Y513300D01*
X4570600Y500000D01*
X4588100D01*
X4605600Y513300D01*
X4620600Y533300D01*
X4633100Y560000D01*
G01X4735800Y900000D02*
Y500000D01*
G01X4678300Y900000D02*
X4793300D01*
G01X4851000Y500000D02*
Y900000D01*
X4913500D01*
X4933500Y880000D01*
X4946000Y853300D01*
X4951000Y800000D01*
X4946000Y746700D01*
X4931000Y713300D01*
X4913500Y693300D01*
X4851000D01*
G01X4913500D02*
X4951000Y500000D01*
G01X5066200D02*
X5046200Y506700D01*
X5028700Y533300D01*
X5013700Y573300D01*
X5003700Y620000D01*
X4998700Y673300D01*
Y726700D01*
X5003700Y780000D01*
X5013700Y826700D01*
X5028700Y866700D01*
X5046200Y893300D01*
X5066200Y900000D01*
X5086200Y893300D01*
X5103700Y866700D01*
X5118700Y826700D01*
X5128700Y780000D01*
X5133700Y726700D01*
Y673300D01*
X5128700Y620000D01*
X5118700Y573300D01*
X5103700Y533300D01*
X5086200Y506700D01*
X5066200Y500000D01*
G01X5173900D02*
Y900000D01*
X5288900Y500000D01*
Y900000D01*
G01X5366600D02*
X5426600D01*
G01X5396600D02*
Y500000D01*
G01X5366600D02*
X5426600D01*
G01X5616800Y866700D02*
X5601800Y886700D01*
X5584300Y900000D01*
X5564300D01*
X5541800Y880000D01*
X5524300Y846700D01*
X5511800Y806700D01*
X5501800Y740000D01*
X5499300Y680000D01*
X5504300Y620000D01*
X5511800Y580000D01*
X5526800Y540000D01*
X5544300Y513300D01*
X5561800Y500000D01*
X5579300D01*
X5596800Y513300D01*
X5611800Y533300D01*
X5624300Y560000D01*
G01X5947200Y866700D02*
X5932200Y886700D01*
X5914700Y900000D01*
X5894700D01*
X5872200Y880000D01*
X5854700Y846700D01*
X5842200Y806700D01*
X5832200Y740000D01*
X5829700Y680000D01*
X5834700Y620000D01*
X5842200Y580000D01*
X5857200Y540000D01*
X5874700Y513300D01*
X5892200Y500000D01*
X5909700D01*
X5927200Y513300D01*
X5942200Y533300D01*
X5954700Y560000D01*
G01X5994900Y500000D02*
X6057400Y900000D01*
X6119900Y500000D01*
G01X6097400Y640000D02*
X6017400D01*
G01X6167600Y500000D02*
Y900000D01*
X6217600D01*
X6237600Y880000D01*
X6252600Y853300D01*
X6265100Y813300D01*
X6275100Y766700D01*
X6277600Y700000D01*
X6275100Y633300D01*
X6265100Y586700D01*
X6252600Y546700D01*
X6237600Y520000D01*
X6217600Y500000D01*
X6167600D01*
G01X3830000Y6666700D02*
X3815000Y6686700D01*
X3797500Y6700000D01*
X3777500D01*
X3755000Y6680000D01*
X3737500Y6646700D01*
X3725000Y6606700D01*
X3715000Y6540000D01*
X3712500Y6480000D01*
X3717500Y6420000D01*
X3725000Y6380000D01*
X3740000Y6340000D01*
X3757500Y6313300D01*
X3775000Y6300000D01*
X3792500D01*
X3810000Y6313300D01*
X3825000Y6333300D01*
X3837500Y6360000D01*
G01X3887700Y6300000D02*
Y6700000D01*
G01X3992700D02*
Y6300000D01*
G01Y6500000D02*
X3887700D01*
G01X4105400Y6300000D02*
X4085400Y6306700D01*
X4067900Y6333300D01*
X4052900Y6373300D01*
X4042900Y6420000D01*
X4037900Y6473300D01*
Y6526700D01*
X4042900Y6580000D01*
X4052900Y6626700D01*
X4067900Y6666700D01*
X4085400Y6693300D01*
X4105400Y6700000D01*
X4125400Y6693300D01*
X4142900Y6666700D01*
X4157900Y6626700D01*
X4167900Y6580000D01*
X4172900Y6526700D01*
Y6473300D01*
X4167900Y6420000D01*
X4157900Y6373300D01*
X4142900Y6333300D01*
X4125400Y6306700D01*
X4105400Y6300000D01*
G01X4220600D02*
Y6700000D01*
X4280600D01*
X4300600Y6680000D01*
X4315600Y6633300D01*
X4320600Y6580000D01*
X4315600Y6526700D01*
X4303100Y6486700D01*
X4280600Y6466700D01*
X4220600D01*
G01X4385800Y6300000D02*
Y6700000D01*
X4445800D01*
X4465800Y6680000D01*
X4480800Y6633300D01*
X4485800Y6580000D01*
X4480800Y6526700D01*
X4468300Y6486700D01*
X4445800Y6466700D01*
X4385800D01*
G01X4571000Y6700000D02*
X4631000D01*
G01X4601000D02*
Y6300000D01*
G01X4571000D02*
X4631000D01*
G01X4708700D02*
Y6700000D01*
X4823700Y6300000D01*
Y6700000D01*
G01X4946400Y6500000D02*
X4996400D01*
Y6380000D01*
X4981400Y6340000D01*
X4963900Y6313300D01*
X4938900Y6300000D01*
X4913900Y6313300D01*
X4896400Y6340000D01*
X4881400Y6380000D01*
X4871400Y6426700D01*
X4866400Y6480000D01*
Y6526700D01*
X4871400Y6566700D01*
X4881400Y6613300D01*
X4896400Y6653300D01*
X4911400Y6680000D01*
X4931400Y6700000D01*
X4948900D01*
X4968900Y6686700D01*
X4983900Y6660000D01*
G01X5186800Y6700000D02*
X5221800Y6300000D01*
X5261800Y6700000D01*
X5301800Y6300000D01*
X5336800Y6700000D01*
G01X5364500Y6300000D02*
X5427000Y6700000D01*
X5489500Y6300000D01*
G01X5467000Y6440000D02*
X5387000D01*
G01X5529700Y6700000D02*
X5592200Y6300000D01*
X5654700Y6700000D01*
G01X5807400Y6300000D02*
X5707400D01*
Y6700000D01*
X5807400D01*
G01X5767400Y6506700D02*
X5707400D01*
G01X6087800Y6300000D02*
X6067800Y6306700D01*
X6050300Y6333300D01*
X6035300Y6373300D01*
X6025300Y6420000D01*
X6020300Y6473300D01*
Y6526700D01*
X6025300Y6580000D01*
X6035300Y6626700D01*
X6050300Y6666700D01*
X6067800Y6693300D01*
X6087800Y6700000D01*
X6107800Y6693300D01*
X6125300Y6666700D01*
X6140300Y6626700D01*
X6150300Y6580000D01*
X6155300Y6526700D01*
Y6473300D01*
X6150300Y6420000D01*
X6140300Y6373300D01*
X6125300Y6333300D01*
X6107800Y6306700D01*
X6087800Y6300000D01*
G01X6200500Y6353300D02*
X6220500Y6320000D01*
X6243000Y6300000D01*
X6263000D01*
X6283000Y6320000D01*
X6298000Y6353300D01*
X6305500Y6400000D01*
X6300500Y6446700D01*
X6288000Y6486700D01*
X6265500Y6513300D01*
X6235500Y6526700D01*
X6218000Y6553300D01*
X6210500Y6600000D01*
X6215500Y6646700D01*
X6228000Y6680000D01*
X6245500Y6700000D01*
X6263000D01*
X6280500Y6686700D01*
X6295500Y6653300D01*
G01X6473200Y6666700D02*
X6458200Y6686700D01*
X6440700Y6700000D01*
X6420700D01*
X6398200Y6680000D01*
X6380700Y6646700D01*
X6368200Y6606700D01*
X6358200Y6540000D01*
X6355700Y6480000D01*
X6360700Y6420000D01*
X6368200Y6380000D01*
X6383200Y6340000D01*
X6400700Y6313300D01*
X6418200Y6300000D01*
X6435700D01*
X6453200Y6313300D01*
X6468200Y6333300D01*
X6480700Y6360000D01*
G54D11*
G01X373000Y3627000D02*
X627000D01*
Y2865000D01*
X373000D01*
Y3627000D01*
G01X411100Y3771900D02*
X419100Y3759200D01*
X428800Y3750700D01*
X440000Y3746500D01*
X452900Y3750700D01*
X462600Y3759200D01*
X472200Y3771900D01*
X475400Y3788800D01*
Y3873500D01*
G01X572700Y3746500D02*
Y3873500D01*
X553400Y3848100D01*
G01Y3746500D02*
X592000D01*
G01X1363600Y3365500D02*
Y3492500D01*
X1403800D01*
X1416700Y3486100D01*
X1424700Y3477700D01*
X1427900Y3460700D01*
X1424700Y3443800D01*
X1415100Y3433200D01*
X1403800Y3426900D01*
X1363600D01*
G01X1403800D02*
X1427900Y3365500D01*
G01X1525200D02*
X1536500Y3367600D01*
X1549400Y3374000D01*
X1557400Y3384500D01*
X1560600Y3399400D01*
X1557400Y3414200D01*
X1547800Y3426900D01*
X1533300Y3433200D01*
X1517200D01*
X1507600Y3437500D01*
X1499500Y3448000D01*
X1496300Y3462900D01*
X1501100Y3477700D01*
X1512400Y3488300D01*
X1525200Y3492500D01*
X1538100Y3488300D01*
X1549400Y3477700D01*
X1554200Y3462900D01*
X1551000Y3448000D01*
X1542900Y3437500D01*
X1533300Y3433200D01*
X1517200D01*
X1502700Y3426900D01*
X1493100Y3414200D01*
X1489900Y3399400D01*
X1493100Y3384500D01*
X1501100Y3374000D01*
X1514000Y3367600D01*
X1525200Y3365500D01*
G01X1259000Y2668500D02*
Y3303500D01*
X1767000D01*
Y2668500D01*
X1259000D01*
G01X1808100Y4064000D02*
Y4191000D01*
X1848300D01*
X1861200Y4184600D01*
X1869200Y4176200D01*
X1872400Y4159200D01*
X1869200Y4142300D01*
X1859600Y4131700D01*
X1848300Y4125400D01*
X1808100D01*
G01X1848300D02*
X1872400Y4064000D01*
G01X1966500D02*
X1969700Y4091500D01*
X1974600Y4114800D01*
X1981000Y4136000D01*
X1989100Y4159200D01*
X2001900Y4191000D01*
X1937600D01*
G01X2267600Y3733000D02*
X1556400D01*
Y3987000D01*
X2267600D01*
Y3733000D01*
G01X1554100Y4889500D02*
Y5016500D01*
X1594300D01*
X1607200Y5010100D01*
X1615200Y5001700D01*
X1618400Y4984700D01*
X1615200Y4967800D01*
X1605600Y4957200D01*
X1594300Y4950900D01*
X1554100D01*
G01X1594300D02*
X1618400Y4889500D01*
G01X1688400Y4904300D02*
X1699700Y4893700D01*
X1712500Y4889500D01*
X1725400Y4893700D01*
X1736700Y4906400D01*
X1744700Y4925500D01*
X1747900Y4944500D01*
Y4967800D01*
X1744700Y4986900D01*
X1736700Y5003800D01*
X1727000Y5012300D01*
X1715700Y5016500D01*
X1702900Y5012300D01*
X1693200Y5003800D01*
X1686800Y4991100D01*
X1683600Y4974200D01*
X1686800Y4959400D01*
X1694800Y4944500D01*
X1704500Y4936100D01*
X1715700Y4933900D01*
X1728600Y4938200D01*
X1738300Y4948800D01*
X1747900Y4967800D01*
G01X2011500Y4279000D02*
X1376500D01*
Y4787000D01*
X2011500D01*
Y4279000D01*
G01X1492400Y5747000D02*
X2203600D01*
Y5493000D01*
X1492400D01*
Y5747000D01*
G01X1679800Y5842000D02*
Y5969000D01*
X1720000D01*
X1732900Y5962600D01*
X1740900Y5954200D01*
X1744100Y5937200D01*
X1740900Y5920300D01*
X1731300Y5909700D01*
X1720000Y5903400D01*
X1679800D01*
G01X1720000D02*
X1744100Y5842000D01*
G01X1841400D02*
Y5969000D01*
X1822100Y5943600D01*
G01Y5842000D02*
X1860700D01*
G01X1970900Y5969000D02*
X1958100Y5964800D01*
X1948400Y5954200D01*
X1942000Y5941500D01*
X1937200Y5924500D01*
X1935600Y5905500D01*
X1937200Y5886400D01*
X1942000Y5869500D01*
X1948400Y5856800D01*
X1958100Y5846200D01*
X1970900Y5842000D01*
X1983800Y5846200D01*
X1993500Y5856800D01*
X1999900Y5869500D01*
X2004700Y5886400D01*
X2006300Y5905500D01*
X2004700Y5924500D01*
X1999900Y5941500D01*
X1993500Y5954200D01*
X1983800Y5964800D01*
X1970900Y5969000D01*
G01X2320100Y3481900D02*
X2310500Y3488300D01*
X2299200Y3492500D01*
X2286400D01*
X2271900Y3486100D01*
X2260600Y3475600D01*
X2252600Y3462900D01*
X2246100Y3441700D01*
X2244500Y3422600D01*
X2247800Y3403600D01*
X2252600Y3390900D01*
X2262200Y3378200D01*
X2273500Y3369700D01*
X2284700Y3365500D01*
X2296000D01*
X2307300Y3369700D01*
X2316900Y3376100D01*
X2325000Y3384500D01*
G01X2414200Y3365500D02*
Y3492500D01*
X2394900Y3467100D01*
G01Y3365500D02*
X2433500D01*
G01X2581000Y3000000D02*
G03I-254000J0D01*
G01X3107000Y2107600D02*
Y1396400D01*
X2853000D01*
Y2107600D01*
X3107000D01*
G01X2887600Y2222500D02*
Y2349500D01*
X2927800D01*
X2940700Y2343100D01*
X2948700Y2334700D01*
X2951900Y2317700D01*
X2948700Y2300800D01*
X2939100Y2290200D01*
X2927800Y2283900D01*
X2887600D01*
G01X2927800D02*
X2951900Y2222500D01*
G01X3049200D02*
Y2349500D01*
X3029900Y2324100D01*
G01Y2222500D02*
X3068500D01*
G01X3082100Y3481900D02*
X3072500Y3488300D01*
X3061200Y3492500D01*
X3048400D01*
X3033900Y3486100D01*
X3022600Y3475600D01*
X3014600Y3462900D01*
X3008100Y3441700D01*
X3006500Y3422600D01*
X3009800Y3403600D01*
X3014600Y3390900D01*
X3024200Y3378200D01*
X3035500Y3369700D01*
X3046700Y3365500D01*
X3058000D01*
X3069300Y3369700D01*
X3078900Y3376100D01*
X3087000Y3384500D01*
G01X3145700Y3471300D02*
X3155300Y3484000D01*
X3166600Y3490400D01*
X3179500Y3492500D01*
X3195600Y3488300D01*
X3206800Y3477700D01*
X3210000Y3465000D01*
X3208400Y3452300D01*
X3202000Y3441700D01*
X3169800Y3420500D01*
X3155300Y3405700D01*
X3145700Y3384500D01*
X3142500Y3365500D01*
X3210000D01*
G01X3361000Y3000000D02*
G03I-254000J0D01*
G01X2633000Y4321600D02*
Y4474000D01*
X2696500Y4537500D01*
Y4664500D01*
X2633000Y4728000D01*
Y4880400D01*
X3649000D01*
Y4321600D01*
X2633000D01*
G01X3011400Y5143500D02*
Y5052500D01*
X3017800Y5033400D01*
X3030700Y5020700D01*
X3046700Y5016500D01*
X3062800Y5020700D01*
X3075700Y5033400D01*
X3082100Y5052500D01*
Y5143500D01*
G01X3176200Y5016500D02*
Y5143500D01*
X3156900Y5118100D01*
G01Y5016500D02*
X3195500D01*
G01X3947000Y2107600D02*
Y1396400D01*
X3693000D01*
Y2107600D01*
X3947000D01*
G01X3713100Y2222500D02*
Y2349500D01*
X3753300D01*
X3766200Y2343100D01*
X3774200Y2334700D01*
X3777400Y2317700D01*
X3774200Y2300800D01*
X3764600Y2290200D01*
X3753300Y2283900D01*
X3713100D01*
G01X3753300D02*
X3777400Y2222500D01*
G01X3844200Y2328300D02*
X3853800Y2341000D01*
X3865100Y2347400D01*
X3878000Y2349500D01*
X3894100Y2345300D01*
X3905300Y2334700D01*
X3908500Y2322000D01*
X3906900Y2309300D01*
X3900500Y2298700D01*
X3868300Y2277500D01*
X3853800Y2262700D01*
X3844200Y2241500D01*
X3841000Y2222500D01*
X3908500D01*
G01X3907600Y3481900D02*
X3898000Y3488300D01*
X3886700Y3492500D01*
X3873900D01*
X3859400Y3486100D01*
X3848100Y3475600D01*
X3840100Y3462900D01*
X3833600Y3441700D01*
X3832000Y3422600D01*
X3835300Y3403600D01*
X3840100Y3390900D01*
X3849700Y3378200D01*
X3861000Y3369700D01*
X3872200Y3365500D01*
X3883500D01*
X3894800Y3369700D01*
X3904400Y3376100D01*
X3912500Y3384500D01*
G01X3966400Y3390900D02*
X3976000Y3376100D01*
X3988900Y3367600D01*
X4003400Y3365500D01*
X4016200Y3367600D01*
X4029100Y3378200D01*
X4037100Y3390900D01*
X4038700Y3403600D01*
X4035500Y3418400D01*
X4024300Y3429000D01*
X4013000Y3433200D01*
X3998500D01*
G01X4013000D02*
X4022700Y3439600D01*
X4030700Y3450200D01*
X4033900Y3462900D01*
X4030700Y3475600D01*
X4022700Y3486100D01*
X4008200Y3492500D01*
X3993700Y3490400D01*
X3979200Y3481900D01*
G01X4201000Y3000000D02*
G03I-254000J0D01*
G01X4347000Y4987600D02*
Y4276400D01*
X4093000D01*
Y4987600D01*
X4347000D01*
G01X4094100Y5080000D02*
Y5207000D01*
X4134300D01*
X4147200Y5200600D01*
X4155200Y5192200D01*
X4158400Y5175200D01*
X4155200Y5158300D01*
X4145600Y5147700D01*
X4134300Y5141400D01*
X4094100D01*
G01X4134300D02*
X4158400Y5080000D01*
G01X4225200Y5132900D02*
X4236400Y5147700D01*
X4246100Y5156200D01*
X4259000Y5160400D01*
X4270200Y5156200D01*
X4278300Y5147700D01*
X4284700Y5135000D01*
X4286300Y5120200D01*
X4284700Y5107500D01*
X4278300Y5094800D01*
X4268600Y5084200D01*
X4257400Y5080000D01*
X4244500Y5084200D01*
X4233200Y5096900D01*
X4226800Y5116000D01*
X4225200Y5137100D01*
X4228400Y5164700D01*
X4233200Y5179500D01*
X4241300Y5194300D01*
X4252500Y5204900D01*
X4263800Y5207000D01*
X4275100Y5202800D01*
X4283100Y5192200D01*
G01X4707000Y2087600D02*
Y1376400D01*
X4453000D01*
Y2087600D01*
X4707000D01*
G01X4475100Y2222500D02*
Y2349500D01*
X4515300D01*
X4528200Y2343100D01*
X4536200Y2334700D01*
X4539400Y2317700D01*
X4536200Y2300800D01*
X4526600Y2290200D01*
X4515300Y2283900D01*
X4475100D01*
G01X4515300D02*
X4539400Y2222500D01*
G01X4601400Y2247900D02*
X4611000Y2233100D01*
X4623900Y2224600D01*
X4638400Y2222500D01*
X4651200Y2224600D01*
X4664100Y2235200D01*
X4672100Y2247900D01*
X4673700Y2260600D01*
X4670500Y2275400D01*
X4659300Y2286000D01*
X4648000Y2290200D01*
X4633500D01*
G01X4648000D02*
X4657700Y2296600D01*
X4665700Y2307200D01*
X4668900Y2319900D01*
X4665700Y2332600D01*
X4657700Y2343100D01*
X4643200Y2349500D01*
X4628700Y2347400D01*
X4614200Y2338900D01*
G01X4669600Y3481900D02*
X4660000Y3488300D01*
X4648700Y3492500D01*
X4635900D01*
X4621400Y3486100D01*
X4610100Y3475600D01*
X4602100Y3462900D01*
X4595600Y3441700D01*
X4594000Y3422600D01*
X4597300Y3403600D01*
X4602100Y3390900D01*
X4611700Y3378200D01*
X4623000Y3369700D01*
X4634200Y3365500D01*
X4645500D01*
X4656800Y3369700D01*
X4666400Y3376100D01*
X4674500Y3384500D01*
G01X4783100Y3365500D02*
Y3492500D01*
X4723500Y3401500D01*
X4804000D01*
G01X4961000Y2980000D02*
G03I-254000J0D01*
G01X5827000Y4998400D02*
Y4846000D01*
X5763500Y4782500D01*
Y4655500D01*
X5827000Y4592000D01*
Y4439600D01*
X4811000D01*
Y4998400D01*
X5827000D01*
G01X5451500Y5359000D02*
X4816500D01*
Y5867000D01*
X5451500D01*
Y5359000D01*
G01X4918300Y5905500D02*
Y6032500D01*
X4958500D01*
X4971400Y6026100D01*
X4979400Y6017700D01*
X4982600Y6000700D01*
X4979400Y5983800D01*
X4969800Y5973200D01*
X4958500Y5966900D01*
X4918300D01*
G01X4958500D02*
X4982600Y5905500D01*
G01X5079900D02*
Y6032500D01*
X5060600Y6007100D01*
G01Y5905500D02*
X5099200D01*
G01X5178900Y6011300D02*
X5188500Y6024000D01*
X5199800Y6030400D01*
X5212700Y6032500D01*
X5228800Y6028300D01*
X5240000Y6017700D01*
X5243200Y6005000D01*
X5241600Y5992300D01*
X5235200Y5981700D01*
X5203000Y5960500D01*
X5188500Y5945700D01*
X5178900Y5924500D01*
X5175700Y5905500D01*
X5243200D01*
G01X5293000Y2972400D02*
Y3683600D01*
X5547000D01*
Y2972400D01*
X5293000D01*
G01X5300600Y3746500D02*
Y3873500D01*
X5340800D01*
X5353700Y3867100D01*
X5361700Y3858700D01*
X5364900Y3841700D01*
X5361700Y3824800D01*
X5352100Y3814200D01*
X5340800Y3807900D01*
X5300600D01*
G01X5340800D02*
X5364900Y3746500D01*
G01X5426900Y3765500D02*
X5436500Y3755000D01*
X5447800Y3748600D01*
X5462200Y3746500D01*
X5476700Y3750700D01*
X5488000Y3759200D01*
X5496000Y3774000D01*
X5497600Y3790900D01*
X5494400Y3807900D01*
X5486400Y3818500D01*
X5475100Y3826900D01*
X5463900Y3829000D01*
X5452600Y3826900D01*
X5438100Y3818500D01*
X5442900Y3873500D01*
X5486400D01*
G01X5170400Y5207000D02*
Y5116000D01*
X5176800Y5096900D01*
X5189700Y5084200D01*
X5205700Y5080000D01*
X5221800Y5084200D01*
X5234700Y5096900D01*
X5241100Y5116000D01*
Y5207000D01*
G01X5304700Y5185800D02*
X5314300Y5198500D01*
X5325600Y5204900D01*
X5338500Y5207000D01*
X5354600Y5202800D01*
X5365800Y5192200D01*
X5369000Y5179500D01*
X5367400Y5166800D01*
X5361000Y5156200D01*
X5328800Y5135000D01*
X5314300Y5120200D01*
X5304700Y5099000D01*
X5301500Y5080000D01*
X5369000D01*
G01X6587000Y3667600D02*
Y2956400D01*
X6333000D01*
Y3667600D01*
X6587000D01*
G01X5813000Y2972400D02*
Y3683600D01*
X6067000D01*
Y2972400D01*
X5813000D01*
G01X5808600Y3746500D02*
Y3873500D01*
X5848800D01*
X5861700Y3867100D01*
X5869700Y3858700D01*
X5872900Y3841700D01*
X5869700Y3824800D01*
X5860100Y3814200D01*
X5848800Y3807900D01*
X5808600D01*
G01X5848800D02*
X5872900Y3746500D01*
G01X5989600D02*
Y3873500D01*
X5930000Y3782500D01*
X6010500D01*
G01X6251800Y3746500D02*
Y3873500D01*
X6292000D01*
X6304900Y3867100D01*
X6312900Y3858700D01*
X6316100Y3841700D01*
X6312900Y3824800D01*
X6303300Y3814200D01*
X6292000Y3807900D01*
X6251800D01*
G01X6292000D02*
X6316100Y3746500D01*
G01X6413400D02*
Y3873500D01*
X6394100Y3848100D01*
G01Y3746500D02*
X6432700D01*
G01X6562300D02*
Y3873500D01*
X6502700Y3782500D01*
X6583200D01*
G01X6427000Y5067600D02*
Y4356400D01*
X6173000D01*
Y5067600D01*
X6427000D01*
G01X6124800Y5207000D02*
Y5334000D01*
X6165000D01*
X6177900Y5327600D01*
X6185900Y5319200D01*
X6189100Y5302200D01*
X6185900Y5285300D01*
X6176300Y5274700D01*
X6165000Y5268400D01*
X6124800D01*
G01X6165000D02*
X6189100Y5207000D01*
G01X6286400D02*
Y5334000D01*
X6267100Y5308600D01*
G01Y5207000D02*
X6305700D01*
G01X6415900D02*
Y5334000D01*
X6396600Y5308600D01*
G01Y5207000D02*
X6435200D01*
G01X6873000Y3021600D02*
Y3174000D01*
X6936500Y3237500D01*
Y3364500D01*
X6873000Y3428000D01*
Y3580400D01*
X7889000D01*
Y3021600D01*
X6873000D01*
G01X7867000Y5018400D02*
Y4866000D01*
X7803500Y4802500D01*
Y4675500D01*
X7867000Y4612000D01*
Y4459600D01*
X6851000D01*
Y5018400D01*
X7867000D01*
G01X7202400Y5270500D02*
Y5179500D01*
X7208800Y5160400D01*
X7221700Y5147700D01*
X7237700Y5143500D01*
X7253800Y5147700D01*
X7266700Y5160400D01*
X7273100Y5179500D01*
Y5270500D01*
G01X7331900Y5168900D02*
X7341500Y5154100D01*
X7354400Y5145600D01*
X7368900Y5143500D01*
X7381700Y5145600D01*
X7394600Y5156200D01*
X7402600Y5168900D01*
X7404200Y5181600D01*
X7401000Y5196400D01*
X7389800Y5207000D01*
X7378500Y5211200D01*
X7364000D01*
G01X7378500D02*
X7388200Y5217600D01*
X7396200Y5228200D01*
X7399400Y5240900D01*
X7396200Y5253600D01*
X7388200Y5264100D01*
X7373700Y5270500D01*
X7359200Y5268400D01*
X7344700Y5259900D01*
G01X7647000Y2147600D02*
Y1436400D01*
X7393000D01*
Y2147600D01*
X7647000D01*
G01X7331300Y2222500D02*
Y2349500D01*
X7371500D01*
X7384400Y2343100D01*
X7392400Y2334700D01*
X7395600Y2317700D01*
X7392400Y2300800D01*
X7382800Y2290200D01*
X7371500Y2283900D01*
X7331300D01*
G01X7371500D02*
X7395600Y2222500D01*
G01X7492900D02*
Y2349500D01*
X7473600Y2324100D01*
G01Y2222500D02*
X7512200D01*
G01X7587100Y2241500D02*
X7596700Y2231000D01*
X7608000Y2224600D01*
X7622400Y2222500D01*
X7636900Y2226700D01*
X7648200Y2235200D01*
X7656200Y2250000D01*
X7657800Y2266900D01*
X7654600Y2283900D01*
X7646600Y2294500D01*
X7635300Y2302900D01*
X7624100Y2305000D01*
X7612800Y2302900D01*
X7598300Y2294500D01*
X7603100Y2349500D01*
X7646600D01*
G01X7265900Y3873500D02*
Y3782500D01*
X7272300Y3763400D01*
X7285200Y3750700D01*
X7301200Y3746500D01*
X7317300Y3750700D01*
X7330200Y3763400D01*
X7336600Y3782500D01*
Y3873500D01*
G01X7450100Y3746500D02*
Y3873500D01*
X7390500Y3782500D01*
X7471000D01*
G01X8613000Y2912400D02*
Y3623600D01*
X8867000D01*
Y2912400D01*
X8613000D01*
G01X8601300Y3683000D02*
Y3810000D01*
X8641500D01*
X8654400Y3803600D01*
X8662400Y3795200D01*
X8665600Y3778200D01*
X8662400Y3761300D01*
X8652800Y3750700D01*
X8641500Y3744400D01*
X8601300D01*
G01X8641500D02*
X8665600Y3683000D01*
G01X8762900D02*
Y3810000D01*
X8743600Y3784600D01*
G01Y3683000D02*
X8782200D01*
G01X8861900Y3735900D02*
X8873100Y3750700D01*
X8882800Y3759200D01*
X8895700Y3763400D01*
X8906900Y3759200D01*
X8915000Y3750700D01*
X8921400Y3738000D01*
X8923000Y3723200D01*
X8921400Y3710500D01*
X8915000Y3697800D01*
X8905300Y3687200D01*
X8894100Y3683000D01*
X8881200Y3687200D01*
X8869900Y3699900D01*
X8863500Y3719000D01*
X8861900Y3740100D01*
X8865100Y3767700D01*
X8869900Y3782500D01*
X8878000Y3797300D01*
X8889200Y3807900D01*
X8900500Y3810000D01*
X8911800Y3805800D01*
X8919800Y3795200D01*
G01X8867000Y5067600D02*
Y4356400D01*
X8613000D01*
Y5067600D01*
X8867000D01*
G01X8537800Y5207000D02*
Y5334000D01*
X8578000D01*
X8590900Y5327600D01*
X8598900Y5319200D01*
X8602100Y5302200D01*
X8598900Y5285300D01*
X8589300Y5274700D01*
X8578000Y5268400D01*
X8537800D01*
G01X8578000D02*
X8602100Y5207000D01*
G01X8699400D02*
Y5334000D01*
X8680100Y5308600D01*
G01Y5207000D02*
X8718700D01*
G01X8793600Y5232400D02*
X8803200Y5217600D01*
X8816100Y5209100D01*
X8830600Y5207000D01*
X8843400Y5209100D01*
X8856300Y5219700D01*
X8864300Y5232400D01*
X8865900Y5245100D01*
X8862700Y5259900D01*
X8851500Y5270500D01*
X8840200Y5274700D01*
X8825700D01*
G01X8840200D02*
X8849900Y5281100D01*
X8857900Y5291700D01*
X8861100Y5304400D01*
X8857900Y5317100D01*
X8849900Y5327600D01*
X8835400Y5334000D01*
X8820900Y5331900D01*
X8806400Y5323400D01*
G01X9627000Y3373000D02*
X9373000D01*
Y3881000D01*
X9627000D01*
Y3373000D01*
G01X9364600Y4025900D02*
X9372600Y4013200D01*
X9382300Y4004700D01*
X9393500Y4000500D01*
X9406400Y4004700D01*
X9416100Y4013200D01*
X9425700Y4025900D01*
X9428900Y4042800D01*
Y4127500D01*
G01X9495700Y4106300D02*
X9505300Y4119000D01*
X9516600Y4125400D01*
X9529500Y4127500D01*
X9545600Y4123300D01*
X9556800Y4112700D01*
X9560000Y4100000D01*
X9558400Y4087300D01*
X9552000Y4076700D01*
X9519800Y4055500D01*
X9505300Y4040700D01*
X9495700Y4019500D01*
X9492500Y4000500D01*
X9560000D01*
M02*
