G04 ================== begin FILE IDENTIFICATION RECORD ==================*
G04 Layout Name:  CHOPPING_WAVE_OSC.brd*
G04 Film Name:    solderT*
G04 File Format:  Gerber RS274X*
G04 File Origin:  Cadence Allegro 17.2-P019*
G04 Origin Date:  Wed Jul 31 12:15:29 2019*
G04 *
G04 Layer:  VIA CLASS/SOLDERMASK_TOP*
G04 Layer:  PIN/SOLDERMASK_TOP*
G04 Layer:  PACKAGE GEOMETRY/SOLDERMASK_TOP*
G04 Layer:  BOARD GEOMETRY/SOLDERMASK_TOP*
G04 *
G04 Offset:    (0.000 0.000)*
G04 Mirror:    No*
G04 Mode:      Positive*
G04 Rotation:  0*
G04 FullContactRelief:  No*
G04 UndefLineWidth:     0.000*
G04 ================== end FILE IDENTIFICATION RECORD ====================*
%FSLAX25Y25*MOMM*%
%IR0*IPPOS*OFA0.00000B0.00000*MIA0B0*SFA1.00000B1.00000*%
%ADD12C,2.032*%
%ADD11C,1.905*%
%ADD10C,3.683*%
%ADD13R,1.905X1.905*%
%LPD*%
G75*
G54D10*
X500000Y500000D03*
Y6500000D03*
X9500000Y500000D03*
Y6500000D03*
G54D11*
X500000Y3246000D03*
Y2992000D03*
Y3500000D03*
X1640000Y2732000D03*
X1386000Y2986000D03*
X1640000Y3240000D03*
X1948000Y4660000D03*
X1694000Y4406000D03*
X1440000Y4660000D03*
X2454000Y3000000D03*
X2200000D03*
X3234000D03*
X2980000D03*
X3268000Y4220000D03*
X3014000D03*
X3268000Y4982000D03*
X3014000D03*
X2760000D03*
X4074000Y3000000D03*
X3820000D03*
X3522000Y4220000D03*
Y4982000D03*
X4834000Y2980000D03*
X4580000D03*
X4938000Y4338000D03*
X4880000Y5740000D03*
X4938000Y5100000D03*
X5192000Y4338000D03*
X5446000D03*
X5700000D03*
X5388000Y5740000D03*
X5134000Y5486000D03*
X5192000Y5100000D03*
X5446000D03*
X7254000Y2920000D03*
Y3682000D03*
X7000000D03*
X6978000Y4358000D03*
X7232000D03*
X6978000Y5120000D03*
X7232000D03*
X7762000Y2920000D03*
X7508000D03*
X7762000Y3682000D03*
X7508000D03*
X7486000Y4358000D03*
X7740000D03*
X7486000Y5120000D03*
X9500000Y3500000D03*
Y3754000D03*
G54D12*
X1404000Y3860000D03*
X1340000Y5620000D03*
X2420000Y3860000D03*
X2356000Y5620000D03*
X2980000Y1244000D03*
Y2260000D03*
X3820000Y1244000D03*
Y2260000D03*
X4220000Y4124000D03*
Y5140000D03*
X4580000Y1224000D03*
Y2240000D03*
X5420000Y2820000D03*
Y3836000D03*
X6460000Y2804000D03*
X5940000Y2820000D03*
X6300000Y4204000D03*
X6460000Y3820000D03*
X5940000Y3836000D03*
X6300000Y5220000D03*
X7520000Y1284000D03*
Y2300000D03*
X8740000Y2760000D03*
Y4204000D03*
Y3776000D03*
Y5220000D03*
G54D13*
X2760000Y4220000D03*
X5700000Y5100000D03*
X7000000Y2920000D03*
X7740000Y5120000D03*
M02*
